<?xml version="1.0" encoding="UTF-8" standalone="no"?>
<!DOCTYPE svg PUBLIC "-//W3C//DTD SVG 1.1//EN"
 "http://www.w3.org/Graphics/SVG/1.1/DTD/svg11.dtd">
<!-- Generated by graphviz version 2.40.1 (20161225.0304)
 -->
<!-- Title: d Pages: 1 -->
<svg width="342pt" height="260pt"
 viewBox="0.00 0.00 342.24 260.00" xmlns="http://www.w3.org/2000/svg" xmlns:xlink="http://www.w3.org/1999/xlink">
<g id="graph0" class="graph" transform="scale(1 1) rotate(0) translate(4 256)">
<title>d</title>
<!-- PosModel -->
<g id="node1" class="node">
<title>PosModel</title>
<ellipse fill="none" stroke="#000000" cx="161.1961" cy="-234" rx="46.5926" ry="18"/>
<text text-anchor="middle" x="161.1961" y="-230.3" font-family="Times,serif" font-size="14.00" fill="#000000">PosModel</text>
</g>
<!-- Order -->
<g id="node2" class="node">
<title>Order</title>
<ellipse fill="none" stroke="#000000" cx="161.1961" cy="-162" rx="31.3957" ry="18"/>
<text text-anchor="middle" x="161.1961" y="-158.3" font-family="Times,serif" font-size="14.00" fill="#000000">Order</text>
</g>
<!-- PosModel&#45;&gt;Order -->
<g id="edge1" class="edge">
<title>PosModel&#45;&gt;Order</title>
<path fill="none" stroke="#000000" d="M161.1961,-215.8314C161.1961,-208.131 161.1961,-198.9743 161.1961,-190.4166"/>
<polygon fill="#000000" stroke="#000000" points="164.6962,-190.4132 161.1961,-180.4133 157.6962,-190.4133 164.6962,-190.4132"/>
</g>
<!-- Orderline -->
<g id="node3" class="node">
<title>Orderline</title>
<ellipse fill="none" stroke="#000000" cx="44.1961" cy="-90" rx="44.393" ry="18"/>
<text text-anchor="middle" x="44.1961" y="-86.3" font-family="Times,serif" font-size="14.00" fill="#000000">Orderline</text>
</g>
<!-- Order&#45;&gt;Orderline -->
<g id="edge2" class="edge">
<title>Order&#45;&gt;Orderline</title>
<path fill="none" stroke="#000000" d="M139.7365,-148.7941C122.2667,-138.0434 97.3102,-122.6856 77.2848,-110.3623"/>
<polygon fill="#000000" stroke="#000000" points="79.1097,-107.3757 68.7588,-105.1155 75.441,-113.3373 79.1097,-107.3757"/>
</g>
<!-- Paymentline -->
<g id="node4" class="node">
<title>Paymentline</title>
<ellipse fill="none" stroke="#000000" cx="161.1961" cy="-90" rx="55.4913" ry="18"/>
<text text-anchor="middle" x="161.1961" y="-86.3" font-family="Times,serif" font-size="14.00" fill="#000000">Paymentline</text>
</g>
<!-- Order&#45;&gt;Paymentline -->
<g id="edge3" class="edge">
<title>Order&#45;&gt;Paymentline</title>
<path fill="none" stroke="#000000" d="M161.1961,-143.8314C161.1961,-136.131 161.1961,-126.9743 161.1961,-118.4166"/>
<polygon fill="#000000" stroke="#000000" points="164.6962,-118.4132 161.1961,-108.4133 157.6962,-118.4133 164.6962,-118.4132"/>
</g>
<!-- Packlotline -->
<g id="node5" class="node">
<title>Packlotline</title>
<ellipse fill="none" stroke="#000000" cx="284.1961" cy="-90" rx="50.0912" ry="18"/>
<text text-anchor="middle" x="284.1961" y="-86.3" font-family="Times,serif" font-size="14.00" fill="#000000">Packlotline</text>
</g>
<!-- Order&#45;&gt;Packlotline -->
<g id="edge4" class="edge">
<title>Order&#45;&gt;Packlotline</title>
<path fill="none" stroke="#000000" d="M183.186,-149.1278C201.4457,-138.4393 227.7636,-123.0337 248.9579,-110.6272"/>
<polygon fill="#000000" stroke="#000000" points="250.8271,-113.5887 257.6891,-105.5163 247.2908,-107.5476 250.8271,-113.5887"/>
</g>
<!-- Product -->
<g id="node6" class="node">
<title>Product</title>
<ellipse fill="none" stroke="#000000" cx="44.1961" cy="-18" rx="38.1938" ry="18"/>
<text text-anchor="middle" x="44.1961" y="-14.3" font-family="Times,serif" font-size="14.00" fill="#000000">Product</text>
</g>
<!-- Orderline&#45;&gt;Product -->
<g id="edge5" class="edge">
<title>Orderline&#45;&gt;Product</title>
<path fill="none" stroke="#000000" d="M44.1961,-71.8314C44.1961,-64.131 44.1961,-54.9743 44.1961,-46.4166"/>
<polygon fill="#000000" stroke="#000000" points="47.6962,-46.4132 44.1961,-36.4133 40.6962,-46.4133 47.6962,-46.4132"/>
</g>
</g>
</svg>
