<?xml version="1.0" encoding="UTF-8" standalone="no"?>
<!DOCTYPE svg PUBLIC "-//W3C//DTD SVG 1.1//EN"
 "http://www.w3.org/Graphics/SVG/1.1/DTD/svg11.dtd">
<!-- Generated by graphviz version 2.40.1 (20161225.0304)
 -->
<!-- Title: d Pages: 1 -->
<svg width="1598pt" height="1021pt"
 viewBox="0.00 0.00 1597.50 1021.00" xmlns="http://www.w3.org/2000/svg" xmlns:xlink="http://www.w3.org/1999/xlink">
<g id="graph0" class="graph" transform="scale(1 1) rotate(0) translate(4 1017)">
<title>d</title>
<g id="clust1" class="cluster">
<title>cluster_get_json</title>
<polygon fill="transparent" stroke="#000000" points="8,-8 8,-294.5 512,-294.5 512,-8 8,-8"/>
</g>
<!-- Order.export_as_JSON() -->
<g id="node1" class="node">
<title>Order.export_as_JSON()</title>
<g id="a_node1"><a xlink:href="https://github.com/odoo/odoo/blob/70fc0ff01386a04a33883293fa35d2233701a761/addons/point_of_sale/static/src/js/models.js#L2106" xlink:title="Order.export_as_JSON()">
<ellipse fill="none" stroke="#000000" cx="381" cy="-268.5" rx="98.5829" ry="18"/>
<text text-anchor="middle" x="381" y="-264.8" font-family="Times,serif" font-size="14.00" fill="#0000ff">Order.export_as_JSON()</text>
</a>
</g>
</g>
<!-- Orderline.export_as_JSON() -->
<g id="node3" class="node">
<title>Orderline.export_as_JSON()</title>
<g id="a_node3"><a xlink:href="https://github.com/odoo/odoo/blob/70fc0ff01386a04a33883293fa35d2233701a761/addons/point_of_sale/static/src/js/models.js#L1578" xlink:title="Orderline.export_as_JSON()">
<ellipse fill="none" stroke="#000000" cx="128" cy="-106" rx="112.3801" ry="18"/>
<text text-anchor="middle" x="128" y="-102.3" font-family="Times,serif" font-size="14.00" fill="#0000ff">Orderline.export_as_JSON()</text>
</a>
</g>
</g>
<!-- Order.export_as_JSON()&#45;&gt;Orderline.export_as_JSON() -->
<g id="edge1" class="edge">
<title>Order.export_as_JSON()&#45;&gt;Orderline.export_as_JSON()</title>
<path fill="none" stroke="#000000" d="M353.9246,-251.1097C308.0127,-221.6208 214.8983,-161.8142 163.7091,-128.9357"/>
<polygon fill="#000000" stroke="#000000" points="165.5686,-125.9703 155.2632,-123.5109 161.7856,-131.8601 165.5686,-125.9703"/>
</g>
<!-- Paymentline.export_as_JSON() -->
<g id="node4" class="node">
<title>Paymentline.export_as_JSON()</title>
<g id="a_node4"><a xlink:href="https://github.com/odoo/odoo/blob/70fc0ff01386a04a33883293fa35d2233701a761/addons/point_of_sale/static/src/js/models.js#L1960" xlink:title="Paymentline.export_as_JSON()">
<ellipse fill="none" stroke="#000000" cx="381" cy="-106" rx="122.6784" ry="18"/>
<text text-anchor="middle" x="381" y="-102.3" font-family="Times,serif" font-size="14.00" fill="#0000ff">Paymentline.export_as_JSON()</text>
</a>
</g>
</g>
<!-- Order.export_as_JSON()&#45;&gt;Paymentline.export_as_JSON() -->
<g id="edge3" class="edge">
<title>Order.export_as_JSON()&#45;&gt;Paymentline.export_as_JSON()</title>
<path fill="none" stroke="#000000" d="M381,-250.4888C381,-222.3033 381,-167.547 381,-134.1308"/>
<polygon fill="#000000" stroke="#000000" points="384.5001,-134.0919 381,-124.0919 377.5001,-134.0919 384.5001,-134.0919"/>
</g>
<!-- Packlotline.export_as_JSON() -->
<g id="node2" class="node">
<title>Packlotline.export_as_JSON()</title>
<g id="a_node2"><a xlink:href="https://github.com/odoo/odoo/blob/70fc0ff01386a04a33883293fa35d2233701a761/addons/point_of_sale/static/src/js/models.js#L1863" xlink:title="Packlotline.export_as_JSON()">
<ellipse fill="none" stroke="#000000" cx="134" cy="-34" rx="118.0794" ry="18"/>
<text text-anchor="middle" x="134" y="-30.3" font-family="Times,serif" font-size="14.00" fill="#0000ff">Packlotline.export_as_JSON()</text>
</a>
</g>
</g>
<!-- Orderline.export_as_JSON()&#45;&gt;Packlotline.export_as_JSON() -->
<g id="edge2" class="edge">
<title>Orderline.export_as_JSON()&#45;&gt;Packlotline.export_as_JSON()</title>
<path fill="none" stroke="#000000" d="M129.5141,-87.8314C130.1558,-80.131 130.9188,-70.9743 131.6319,-62.4166"/>
<polygon fill="#000000" stroke="#000000" points="135.1229,-62.6694 132.4656,-52.4133 128.1471,-62.088 135.1229,-62.6694"/>
</g>
<!-- bind -->
<g id="node5" class="node">
<title>bind</title>
<polygon fill="none" stroke="#000000" points="433,-900 433,-937 1083,-937 1083,-900 433,-900"/>
<text text-anchor="start" x="742" y="-914.8" font-family="Times,serif" font-size="14.00" fill="#000000">Order</text>
<g id="a_node5_0"><a xlink:href="https://github.com/odoo/odoo/blob/70fc0ff01386a04a33883293fa35d2233701a761/addons/point_of_sale/static/src/js/models.js#L2020" xlink:title="&lt;TABLE&gt;">
<polygon fill="none" stroke="#0000ff" points="433,-803 433,-900 1083,-900 1083,-803 433,-803"/>
<text text-anchor="start" x="444" y="-877.8" font-family="monospace" font-size="14.00" fill="#000000">initialize: function(attributes,options){</text>
<text text-anchor="start" x="444" y="-862.8" font-family="monospace" font-size="14.00" fill="#000000"> &#160;&#160;&#160;// ...</text>
<text text-anchor="start" x="444" y="-847.8" font-family="monospace" font-size="14.00" fill="#000000"> &#160;&#160;&#160;this.on(&#39;change&#39;, function(){ this.save_to_db(&quot;order:change&quot;); }, this);</text>
<text text-anchor="start" x="444" y="-832.8" font-family="monospace" font-size="14.00" fill="#000000"> &#160;&#160;&#160;// ...</text>
<text text-anchor="start" x="444" y="-817.8" font-family="monospace" font-size="14.00" fill="#000000">}</text>
</a>
</g>
</g>
<!-- save_to_db -->
<g id="node6" class="node">
<title>save_to_db</title>
<polygon fill="none" stroke="#000000" points="582,-721.5 582,-758.5 935,-758.5 935,-721.5 582,-721.5"/>
<text text-anchor="start" x="742.5" y="-736.3" font-family="Times,serif" font-size="14.00" fill="#000000">Order</text>
<g id="a_node6_1"><a xlink:href="https://github.com/odoo/odoo/blob/70fc0ff01386a04a33883293fa35d2233701a761/addons/point_of_sale/static/src/js/models.js#L2042" xlink:title="&lt;TABLE&gt;">
<polygon fill="none" stroke="#0000ff" points="582,-639.5 582,-721.5 935,-721.5 935,-639.5 582,-639.5"/>
<text text-anchor="start" x="593" y="-699.3" font-family="monospace" font-size="14.00" fill="#000000">save_to_db: function(){</text>
<text text-anchor="start" x="593" y="-684.3" font-family="monospace" font-size="14.00" fill="#000000"> &#160;&#160;&#160;// ...</text>
<text text-anchor="start" x="593" y="-669.3" font-family="monospace" font-size="14.00" fill="#000000"> &#160;&#160;&#160;this.pos.db.save_unpaid_order(this);</text>
<text text-anchor="start" x="593" y="-654.3" font-family="monospace" font-size="14.00" fill="#000000">},</text>
</a>
</g>
</g>
<!-- bind&#45;&gt;save_to_db -->
<g id="edge5" class="edge">
<title>bind&#45;&gt;save_to_db</title>
<path fill="none" stroke="#000000" stroke-dasharray="1,5" d="M758,-798.6806C758,-790.3117 758,-781.7587 758,-773.3561"/>
<polygon fill="#000000" stroke="#000000" points="761.5001,-773.2038 758,-763.2038 754.5001,-773.2039 761.5001,-773.2038"/>
</g>
<!-- save_unpaid_order -->
<g id="node7" class="node">
<title>save_unpaid_order</title>
<polygon fill="none" stroke="#000000" points="553,-558.5 553,-595.5 963,-595.5 963,-558.5 553,-558.5"/>
<text text-anchor="start" x="738.5" y="-573.3" font-family="Times,serif" font-size="14.00" fill="#000000">PosDB</text>
<g id="a_node7_2"><a xlink:href="https://github.com/odoo/odoo/blob/d4255e01d67154a60cd0c31070ac62e581f50340/addons/point_of_sale/static/src/js/db.js#L450" xlink:title="&lt;TABLE&gt;">
<polygon fill="none" stroke="#0000ff" points="553,-416.5 553,-558.5 963,-558.5 963,-416.5 553,-416.5"/>
<text text-anchor="start" x="564" y="-536.3" font-family="monospace" font-size="14.00" fill="#000000">save_unpaid_order: function(order){</text>
<text text-anchor="start" x="564" y="-521.3" font-family="monospace" font-size="14.00" fill="#000000"> &#160;&#160;&#160;// ...</text>
<text text-anchor="start" x="564" y="-506.3" font-family="monospace" font-size="14.00" fill="#000000"> &#160;&#160;&#160;var orders = this.load(&#39;unpaid_orders&#39;,[]);</text>
<text text-anchor="start" x="564" y="-491.3" font-family="monospace" font-size="14.00" fill="#000000"> &#160;&#160;&#160;var serialized = order.export_as_JSON();</text>
<text text-anchor="start" x="564" y="-476.3" font-family="monospace" font-size="14.00" fill="#000000"> &#160;&#160;&#160;// ...</text>
<text text-anchor="start" x="564" y="-461.3" font-family="monospace" font-size="14.00" fill="#000000"> &#160;&#160;&#160;this.save(&#39;unpaid_orders&#39;,orders);</text>
<text text-anchor="start" x="564" y="-446.3" font-family="monospace" font-size="14.00" fill="#000000"> &#160;&#160;&#160;// ...</text>
<text text-anchor="start" x="564" y="-431.3" font-family="monospace" font-size="14.00" fill="#000000">}</text>
</a>
</g>
</g>
<!-- save_to_db&#45;&gt;save_unpaid_order -->
<g id="edge6" class="edge">
<title>save_to_db&#45;&gt;save_unpaid_order</title>
<path fill="none" stroke="#000000" d="M758,-635.7697C758,-627.5623 758,-618.996 758,-610.3506"/>
<polygon fill="#000000" stroke="#000000" points="761.5001,-610.182 758,-600.182 754.5001,-610.1821 761.5001,-610.182"/>
</g>
<!-- save_unpaid_order&#45;&gt;Order.export_as_JSON() -->
<g id="edge7" class="edge">
<title>save_unpaid_order&#45;&gt;Order.export_as_JSON()</title>
<path fill="none" stroke="#000000" d="M569.1127,-412.8379C549.139,-401.3549 529.4164,-389.3093 511,-377 472.6816,-351.3885 432.539,-316.4526 407.1785,-293.2194"/>
<polygon fill="#000000" stroke="#000000" points="409.5226,-290.62 399.801,-286.408 404.7741,-295.7632 409.5226,-290.62"/>
</g>
<!-- load -->
<g id="node8" class="node">
<title>load</title>
<polygon fill="none" stroke="#000000" points="528,-335.5 528,-372.5 988,-372.5 988,-335.5 528,-335.5"/>
<text text-anchor="start" x="738.5" y="-350.3" font-family="Times,serif" font-size="14.00" fill="#000000">PosDB</text>
<g id="a_node8_3"><a xlink:href="https://github.com/odoo/odoo/blob/d4255e01d67154a60cd0c31070ac62e581f50340/addons/point_of_sale/static/src/js/db.js#L135" xlink:title="&lt;TABLE&gt;">
<polygon fill="none" stroke="#0000ff" points="528,-163.5 528,-335.5 988,-335.5 988,-163.5 528,-163.5"/>
<text text-anchor="start" x="539" y="-313.3" font-family="monospace" font-size="14.00" fill="#000000">load: function(store,deft){</text>
<text text-anchor="start" x="539" y="-298.3" font-family="monospace" font-size="14.00" fill="#000000"> &#160;&#160;&#160;// omitting the caching mechanism for brevity...</text>
<text text-anchor="start" x="539" y="-283.3" font-family="monospace" font-size="14.00" fill="#000000"> &#160;&#160;&#160;var data = localStorage[this.name + &#39;_&#39; + store];</text>
<text text-anchor="start" x="539" y="-268.3" font-family="monospace" font-size="14.00" fill="#000000"> &#160;&#160;&#160;if(data !== undefined &amp;&amp; data !== &quot;&quot;){</text>
<text text-anchor="start" x="539" y="-253.3" font-family="monospace" font-size="14.00" fill="#000000"> &#160;&#160;&#160;&#160;&#160;&#160;&#160;data = JSON.parse(data);</text>
<text text-anchor="start" x="539" y="-238.3" font-family="monospace" font-size="14.00" fill="#000000"> &#160;&#160;&#160;&#160;&#160;&#160;&#160;// ...</text>
<text text-anchor="start" x="539" y="-223.3" font-family="monospace" font-size="14.00" fill="#000000"> &#160;&#160;&#160;&#160;&#160;&#160;&#160;return data;</text>
<text text-anchor="start" x="539" y="-208.3" font-family="monospace" font-size="14.00" fill="#000000"> &#160;&#160;&#160;}</text>
<text text-anchor="start" x="539" y="-193.3" font-family="monospace" font-size="14.00" fill="#000000"> &#160;&#160;&#160;// ...</text>
<text text-anchor="start" x="539" y="-178.3" font-family="monospace" font-size="14.00" fill="#000000">},</text>
</a>
</g>
</g>
<!-- save_unpaid_order&#45;&gt;load -->
<g id="edge8" class="edge">
<title>save_unpaid_order&#45;&gt;load</title>
<path fill="none" stroke="#000000" d="M758,-412.7777C758,-404.3631 758,-395.7717 758,-387.1826"/>
<polygon fill="#000000" stroke="#000000" points="761.5001,-387.1113 758,-377.1113 754.5001,-387.1114 761.5001,-387.1113"/>
</g>
<!-- save -->
<g id="node9" class="node">
<title>save</title>
<polygon fill="none" stroke="#000000" points="1023,-290.5 1023,-327.5 1582,-327.5 1582,-290.5 1023,-290.5"/>
<text text-anchor="start" x="1283" y="-305.3" font-family="Times,serif" font-size="14.00" fill="#000000">PosDB</text>
<g id="a_node9_4"><a xlink:href="https://github.com/odoo/odoo/blob/d4255e01d67154a60cd0c31070ac62e581f50340/addons/point_of_sale/static/src/js/db.js#L149" xlink:title="&lt;TABLE&gt;">
<polygon fill="none" stroke="#0000ff" points="1023,-208.5 1023,-290.5 1582,-290.5 1582,-208.5 1023,-208.5"/>
<text text-anchor="start" x="1034" y="-268.3" font-family="monospace" font-size="14.00" fill="#000000">save: function(store,data){</text>
<text text-anchor="start" x="1034" y="-253.3" font-family="monospace" font-size="14.00" fill="#000000"> &#160;&#160;&#160;localStorage[this.name + &#39;_&#39; + store] = JSON.stringify(data);</text>
<text text-anchor="start" x="1034" y="-238.3" font-family="monospace" font-size="14.00" fill="#000000"> &#160;&#160;&#160;// ...</text>
<text text-anchor="start" x="1034" y="-223.3" font-family="monospace" font-size="14.00" fill="#000000">}</text>
</a>
</g>
</g>
<!-- save_unpaid_order&#45;&gt;save -->
<g id="edge9" class="edge">
<title>save_unpaid_order&#45;&gt;save</title>
<path fill="none" stroke="#000000" d="M971.0518,-413.2898C1029.754,-387.6076 1092.3043,-360.2418 1147.0409,-336.2946"/>
<polygon fill="#000000" stroke="#000000" points="1148.7012,-339.3886 1156.4599,-332.1738 1145.8954,-332.9755 1148.7012,-339.3886"/>
</g>
<!-- backbone -->
<g id="node10" class="node">
<title>backbone</title>
<ellipse fill="none" stroke="#000000" cx="758" cy="-995" rx="71.4873" ry="18"/>
<text text-anchor="middle" x="758" y="-991.3" font-family="Times,serif" font-size="14.00" fill="#000000">Backbone trigger</text>
</g>
<!-- backbone&#45;&gt;bind -->
<g id="edge4" class="edge">
<title>backbone&#45;&gt;bind</title>
<path fill="none" stroke="#000000" d="M758,-976.8239C758,-969.5872 758,-960.7171 758,-951.2109"/>
<polygon fill="#000000" stroke="#000000" points="761.5001,-951.1158 758,-941.1158 754.5001,-951.1159 761.5001,-951.1158"/>
</g>
</g>
</svg>
