<?xml version="1.0" encoding="UTF-8" standalone="no"?>
<!DOCTYPE svg PUBLIC "-//W3C//DTD SVG 1.1//EN"
 "http://www.w3.org/Graphics/SVG/1.1/DTD/svg11.dtd">
<!-- Generated by graphviz version 2.40.1 (20161225.0304)
 -->
<!-- Title: d Pages: 1 -->
<svg width="2535pt" height="819pt"
 viewBox="0.00 0.00 2534.50 819.00" xmlns="http://www.w3.org/2000/svg" xmlns:xlink="http://www.w3.org/1999/xlink">
<g id="graph0" class="graph" transform="scale(1 1) rotate(0) translate(4 815)">
<title>d</title>
<!-- click_product -->
<g id="node1" class="node">
<title>click_product</title>
<polygon fill="none" stroke="#000000" points="493.5,-769.5 493.5,-806.5 920.5,-806.5 920.5,-769.5 493.5,-769.5"/>
<text text-anchor="start" x="647" y="-784.3" font-family="Times,serif" font-size="14.00" fill="#000000">ProductScreenWidget</text>
<g id="a_node1_0"><a xlink:href="https://github.com/odoo/odoo/blob/70fc0ff01386a04a33883293fa35d2233701a761/addons/point_of_sale/static/src/js/screens.js#L1087" xlink:title="&lt;TABLE&gt;">
<polygon fill="none" stroke="#0000ff" points="493.5,-657.5 493.5,-769.5 920.5,-769.5 920.5,-657.5 493.5,-657.5"/>
<text text-anchor="start" x="504.5" y="-747.3" font-family="monospace" font-size="14.00" fill="#000000">click_product: function(product) {</text>
<text text-anchor="start" x="504.5" y="-732.3" font-family="monospace" font-size="14.00" fill="#000000"> &#160;&#160;// ...</text>
<text text-anchor="start" x="504.5" y="-717.3" font-family="monospace" font-size="14.00" fill="#000000"> &#160;&#160;}else{</text>
<text text-anchor="start" x="504.5" y="-702.3" font-family="monospace" font-size="14.00" fill="#000000"> &#160;&#160;&#160;&#160;&#160;&#160;this.pos.get_order().add_product(product);</text>
<text text-anchor="start" x="504.5" y="-687.3" font-family="monospace" font-size="14.00" fill="#000000"> &#160;&#160;}</text>
<text text-anchor="start" x="504.5" y="-672.3" font-family="monospace" font-size="14.00" fill="#000000">}</text>
</a>
</g>
</g>
<!-- add_product -->
<g id="node2" class="node">
<title>add_product</title>
<polygon fill="none" stroke="#000000" points="328.5,-561.5 328.5,-598.5 1085.5,-598.5 1085.5,-561.5 328.5,-561.5"/>
<text text-anchor="start" x="691" y="-576.3" font-family="Times,serif" font-size="14.00" fill="#000000">Order</text>
<g id="a_node2_1"><a xlink:href="https://github.com/odoo/odoo/blob/70fc0ff01386a04a33883293fa35d2233701a761/addons/point_of_sale/static/src/js/models.js#L2353" xlink:title="&lt;TABLE&gt;">
<polygon fill="none" stroke="#0000ff" points="328.5,-399.5 328.5,-561.5 1085.5,-561.5 1085.5,-399.5 328.5,-399.5"/>
<text text-anchor="start" x="339.5" y="-540.3" font-family="monospace" font-size="14.00" fill="#000000">add_product: function(product, options){</text>
<text text-anchor="start" x="339.5" y="-526.3" font-family="monospace" font-size="14.00" fill="#000000"> &#160;&#160;&#160;// ...</text>
<text text-anchor="start" x="339.5" y="-512.3" font-family="monospace" font-size="14.00" fill="#000000"> &#160;&#160;&#160;var line = new exports.Orderline({}, {pos: this.pos, order: this, product: product});</text>
<text text-anchor="start" x="339.5" y="-498.3" font-family="monospace" font-size="14.00" fill="#000000"> &#160;&#160;&#160;// ...</text>
<text text-anchor="start" x="339.5" y="-484.3" font-family="monospace" font-size="14.00" fill="#000000"> &#160;&#160;&#160;line.set_quantity(options.quantity);</text>
<text text-anchor="start" x="339.5" y="-470.3" font-family="monospace" font-size="14.00" fill="#000000"> &#160;&#160;&#160;// ...</text>
<text text-anchor="start" x="339.5" y="-456.3" font-family="monospace" font-size="14.00" fill="#000000"> &#160;&#160;&#160;else {</text>
<text text-anchor="start" x="339.5" y="-442.3" font-family="monospace" font-size="14.00" fill="#000000"> &#160;&#160;&#160;&#160;&#160;&#160;</text>
<text text-anchor="start" x="397.5" y="-442.3" font-family="monospace" font-size="14.00" fill="#ff0000">this.orderlines.add(line);</text>
<text text-anchor="start" x="339.5" y="-428.3" font-family="monospace" font-size="14.00" fill="#000000"> &#160;&#160;&#160;}</text>
<text text-anchor="start" x="339.5" y="-414.3" font-family="monospace" font-size="14.00" fill="#000000">}</text>
</a>
</g>
</g>
<!-- click_product&#45;&gt;add_product -->
<g id="edge1" class="edge">
<title>click_product&#45;&gt;add_product</title>
<path fill="none" stroke="#000000" d="M706.5,-653.9417C706.5,-640.9924 706.5,-627.3411 706.5,-613.7311"/>
<polygon fill="#000000" stroke="#000000" points="710.0001,-613.3438 706.5,-603.3438 703.0001,-613.3439 710.0001,-613.3438"/>
<text text-anchor="middle" x="712" y="-624.8" font-family="Times,serif" font-size="14.00" fill="#000000">0.</text>
</g>
<!-- orderline_initialize -->
<g id="node3" class="node">
<title>orderline_initialize</title>
<polygon fill="none" stroke="#000000" points="105.5,-303.5 105.5,-340.5 878.5,-340.5 878.5,-303.5 105.5,-303.5"/>
<text text-anchor="start" x="466" y="-318.3" font-family="Times,serif" font-size="14.00" fill="#000000">Orderline</text>
<g id="a_node3_2"><a xlink:href="https://github.com/odoo/odoo/blob/70fc0ff01386a04a33883293fa35d2233701a761/addons/point_of_sale/static/src/js/models.js#L1342" xlink:title="&lt;TABLE&gt;">
<polygon fill="none" stroke="#0000ff" points="105.5,-191.5 105.5,-303.5 878.5,-303.5 878.5,-191.5 105.5,-191.5"/>
<text text-anchor="start" x="116.5" y="-281.3" font-family="monospace" font-size="14.00" fill="#000000">initialize: function(attr,options){</text>
<text text-anchor="start" x="116.5" y="-266.3" font-family="monospace" font-size="14.00" fill="#000000"> &#160;&#160;&#160;// ...</text>
<text text-anchor="start" x="116.5" y="-251.3" font-family="monospace" font-size="14.00" fill="#000000"> &#160;&#160;&#160;this.set_quantity(1);</text>
<text text-anchor="start" x="116.5" y="-236.3" font-family="monospace" font-size="14.00" fill="#000000"> &#160;&#160;&#160;// ...</text>
<text text-anchor="start" x="116.5" y="-221.3" font-family="monospace" font-size="14.00" fill="#000000"> &#160;&#160;&#160;this.set_unit_price(this.product.get_price(this.order.pricelist, this.get_quantity()));</text>
<text text-anchor="start" x="116.5" y="-206.3" font-family="monospace" font-size="14.00" fill="#000000">}</text>
</a>
</g>
</g>
<!-- add_product&#45;&gt;orderline_initialize -->
<g id="edge2" class="edge">
<title>add_product&#45;&gt;orderline_initialize</title>
<path fill="none" stroke="#000000" d="M610.9458,-395.9459C597.698,-381.589 584.2051,-366.9665 571.2855,-352.9652"/>
<polygon fill="#000000" stroke="#000000" points="573.5258,-350.232 564.1721,-345.2562 568.3814,-354.9791 573.5258,-350.232"/>
<text text-anchor="middle" x="599" y="-366.8" font-family="Times,serif" font-size="14.00" fill="#000000">1.</text>
</g>
<!-- orderline_set_quantity -->
<g id="node5" class="node">
<title>orderline_set_quantity</title>
<polygon fill="none" stroke="#000000" points="724.5,-88.5 724.5,-125.5 1118.5,-125.5 1118.5,-88.5 724.5,-88.5"/>
<text text-anchor="start" x="895.5" y="-103.3" font-family="Times,serif" font-size="14.00" fill="#000000">Orderline</text>
<g id="a_node5_3"><a xlink:href="https://github.com/odoo/odoo/blob/70fc0ff01386a04a33883293fa35d2233701a761/addons/point_of_sale/static/src/js/models.js#L1425" xlink:title="&lt;TABLE&gt;">
<polygon fill="none" stroke="#0000ff" points="724.5,-10.5 724.5,-88.5 1118.5,-88.5 1118.5,-10.5 724.5,-10.5"/>
<text text-anchor="start" x="735.5" y="-67.3" font-family="monospace" font-size="14.00" fill="#000000">set_quantity: function(quantity, keep_price){</text>
<text text-anchor="start" x="735.5" y="-53.3" font-family="monospace" font-size="14.00" fill="#000000"> &#160;&#160;&#160;// ...</text>
<text text-anchor="start" x="735.5" y="-39.3" font-family="monospace" font-size="14.00" fill="#000000"> &#160;&#160;</text>
<text text-anchor="start" x="760.5" y="-39.3" font-family="monospace" font-size="14.00" fill="#ff0000">this.trigger(&#39;change&#39;, this);</text>
<text text-anchor="start" x="735.5" y="-25.3" font-family="monospace" font-size="14.00" fill="#000000">}</text>
</a>
</g>
</g>
<!-- add_product&#45;&gt;orderline_set_quantity -->
<g id="edge5" class="edge">
<title>add_product&#45;&gt;orderline_set_quantity</title>
<path fill="none" stroke="#000000" d="M857.3602,-395.6381C871.8537,-380.1963 884.7555,-363.2638 894.5,-345 928.2337,-281.774 931.9051,-198.8003 929.0466,-140.2991"/>
<polygon fill="#000000" stroke="#000000" points="932.5253,-139.8223 928.4662,-130.0359 925.5365,-140.2176 932.5253,-139.8223"/>
<text text-anchor="middle" x="936" y="-262.8" font-family="Times,serif" font-size="14.00" fill="#000000">4.</text>
</g>
<!-- orderline_set_unit_price -->
<g id="node4" class="node">
<title>orderline_set_unit_price</title>
<polygon fill="none" stroke="#000000" points="8.5,-95.5 8.5,-132.5 691.5,-132.5 691.5,-95.5 8.5,-95.5"/>
<text text-anchor="start" x="324" y="-110.3" font-family="Times,serif" font-size="14.00" fill="#000000">Orderline</text>
<g id="a_node4_4"><a xlink:href="https://github.com/odoo/odoo/blob/70fc0ff01386a04a33883293fa35d2233701a761/addons/point_of_sale/static/src/js/models.js#L1645" xlink:title="&lt;TABLE&gt;">
<polygon fill="none" stroke="#0000ff" points="8.5,-3.5 8.5,-95.5 691.5,-95.5 691.5,-3.5 8.5,-3.5"/>
<text text-anchor="start" x="19.5" y="-74.3" font-family="monospace" font-size="14.00" fill="#000000">set_unit_price: function(price){</text>
<text text-anchor="start" x="19.5" y="-60.3" font-family="monospace" font-size="14.00" fill="#000000"> &#160;&#160;&#160;this.order.assert_editable();</text>
<text text-anchor="start" x="19.5" y="-46.3" font-family="monospace" font-size="14.00" fill="#000000"> &#160;&#160;&#160;this.price = round_di(parseFloat(price) || 0, this.pos.dp[&#39;Product Price&#39;]);</text>
<text text-anchor="start" x="19.5" y="-32.3" font-family="monospace" font-size="14.00" fill="#000000"> &#160;&#160;</text>
<text text-anchor="start" x="44.5" y="-32.3" font-family="monospace" font-size="14.00" fill="#ff0000">this.trigger(&#39;change&#39;,this);</text>
<text text-anchor="start" x="19.5" y="-18.3" font-family="monospace" font-size="14.00" fill="#000000">}</text>
</a>
</g>
</g>
<!-- orderline_initialize&#45;&gt;orderline_set_unit_price -->
<g id="edge4" class="edge">
<title>orderline_initialize&#45;&gt;orderline_set_unit_price</title>
<path fill="none" stroke="#000000" d="M435.1739,-187.9608C425.0762,-173.8809 414.5644,-159.2236 404.5046,-145.1965"/>
<polygon fill="#000000" stroke="#000000" points="407.3124,-143.106 398.6402,-137.0195 401.624,-147.1855 407.3124,-143.106"/>
<text text-anchor="middle" x="426" y="-158.8" font-family="Times,serif" font-size="14.00" fill="#000000">3.</text>
</g>
<!-- orderline_initialize&#45;&gt;orderline_set_quantity -->
<g id="edge3" class="edge">
<title>orderline_initialize&#45;&gt;orderline_set_quantity</title>
<path fill="none" stroke="#000000" d="M662.065,-187.9608C700.5416,-170.2437 741.0035,-151.6124 778.226,-134.4727"/>
<polygon fill="#000000" stroke="#000000" points="779.9969,-137.5105 787.6163,-130.1488 777.0691,-131.1522 779.9969,-137.5105"/>
<text text-anchor="middle" x="738" y="-158.8" font-family="Times,serif" font-size="14.00" fill="#000000">2.</text>
</g>
<!-- render_orderwidget_bind -->
<g id="node6" class="node">
<title>render_orderwidget_bind</title>
<polygon fill="none" stroke="#000000" points="954.5,-732.5 954.5,-769.5 2074.5,-769.5 2074.5,-732.5 954.5,-732.5"/>
<text text-anchor="start" x="1478" y="-747.3" font-family="Times,serif" font-size="14.00" fill="#000000">OrderWidget</text>
<g id="a_node6_5"><a xlink:href="https://github.com/odoo/odoo/blob/70fc0ff01386a04a33883293fa35d2233701a761/addons/point_of_sale/static/src/js/screens.js#L594" xlink:title="&lt;TABLE&gt;">
<polygon fill="none" stroke="#0000ff" points="954.5,-695.5 954.5,-732.5 2074.5,-732.5 2074.5,-695.5 954.5,-695.5"/>
<text text-anchor="start" x="965.5" y="-710.3" font-family="monospace" font-size="14.00" fill="#000000">bind_order_events: function() { &#160;&#160;&#160;// ... &#160;&#160;&#160;var lines = order.orderlines; &#160;&#160;&#160;// ... &#160;&#160;&#160;lines.bind(&#39;add&#39;, this.orderline_add, this);}</text>
</a>
</g>
</g>
<!-- render_orderline_add -->
<g id="node7" class="node">
<title>render_orderline_add</title>
<polygon fill="none" stroke="#000000" points="2108.5,-754.5 2108.5,-791.5 2518.5,-791.5 2518.5,-754.5 2108.5,-754.5"/>
<text text-anchor="start" x="2277" y="-769.3" font-family="Times,serif" font-size="14.00" fill="#000000">OrderWidget</text>
<g id="a_node7_6"><a xlink:href="https://github.com/odoo/odoo/blob/70fc0ff01386a04a33883293fa35d2233701a761/addons/point_of_sale/static/src/js/screens.js#L581" xlink:title="&lt;TABLE&gt;">
<polygon fill="none" stroke="#0000ff" points="2108.5,-672.5 2108.5,-754.5 2518.5,-754.5 2518.5,-672.5 2108.5,-672.5"/>
<text text-anchor="start" x="2119.5" y="-732.3" font-family="monospace" font-size="14.00" fill="#000000">orderline_add: function(){</text>
<text text-anchor="start" x="2119.5" y="-717.3" font-family="monospace" font-size="14.00" fill="#000000"> &#160;&#160;&#160;// ...</text>
<text text-anchor="start" x="2119.5" y="-702.3" font-family="monospace" font-size="14.00" fill="#000000"> &#160;&#160;&#160;this.renderElement(&#39;and_scroll_to_bottom&#39;);</text>
<text text-anchor="start" x="2119.5" y="-687.3" font-family="monospace" font-size="14.00" fill="#000000">}</text>
</a>
</g>
</g>
</g>
</svg>
