<?xml version="1.0" encoding="UTF-8" standalone="no"?>
<!DOCTYPE svg PUBLIC "-//W3C//DTD SVG 1.1//EN"
 "http://www.w3.org/Graphics/SVG/1.1/DTD/svg11.dtd">
<!-- Generated by graphviz version 2.40.1 (20161225.0304)
 -->
<!-- Title: d Pages: 1 -->
<svg width="2068pt" height="1464pt"
 viewBox="0.00 0.00 2068.00 1464.00" xmlns="http://www.w3.org/2000/svg" xmlns:xlink="http://www.w3.org/1999/xlink">
<g id="graph0" class="graph" transform="scale(1 1) rotate(0) translate(4 1460)">
<title>d</title>
<g id="clust1" class="cluster">
<title>cluster_events</title>
<polygon fill="transparent" stroke="#000000" points="8,-8 8,-1448 1150,-1448 1150,-8 8,-8"/>
<text text-anchor="middle" x="579" y="-1432.8" font-family="Times,serif" font-size="14.00" fill="#000000">Backbone events</text>
</g>
<g id="clust2" class="cluster">
<title>cluster_rendering</title>
<polygon fill="transparent" stroke="#000000" points="1158,-182 1158,-1219 2052,-1219 2052,-182 1158,-182"/>
<text text-anchor="middle" x="1605" y="-1203.8" font-family="Times,serif" font-size="14.00" fill="#000000">UI rendering</text>
</g>
<!-- click_product -->
<g id="node1" class="node">
<title>click_product</title>
<polygon fill="none" stroke="#000000" points="624,-1375.5 624,-1412.5 1051,-1412.5 1051,-1375.5 624,-1375.5"/>
<text text-anchor="start" x="777.5" y="-1390.3" font-family="Times,serif" font-size="14.00" fill="#000000">ProductScreenWidget</text>
<g id="a_node1_0"><a xlink:href="https://github.com/odoo/odoo/blob/70fc0ff01386a04a33883293fa35d2233701a761/addons/point_of_sale/static/src/js/screens.js#L1087" xlink:title="&lt;TABLE&gt;">
<polygon fill="none" stroke="#0000ff" points="624,-1263.5 624,-1375.5 1051,-1375.5 1051,-1263.5 624,-1263.5"/>
<text text-anchor="start" x="635" y="-1353.3" font-family="monospace" font-size="14.00" fill="#000000">click_product: function(product) {</text>
<text text-anchor="start" x="635" y="-1338.3" font-family="monospace" font-size="14.00" fill="#000000"> &#160;&#160;// ...</text>
<text text-anchor="start" x="635" y="-1323.3" font-family="monospace" font-size="14.00" fill="#000000"> &#160;&#160;}else{</text>
<text text-anchor="start" x="635" y="-1308.3" font-family="monospace" font-size="14.00" fill="#000000"> &#160;&#160;&#160;&#160;&#160;&#160;this.pos.get_order().add_product(product);</text>
<text text-anchor="start" x="635" y="-1293.3" font-family="monospace" font-size="14.00" fill="#000000"> &#160;&#160;}</text>
<text text-anchor="start" x="635" y="-1278.3" font-family="monospace" font-size="14.00" fill="#000000">}</text>
</a>
</g>
</g>
<!-- add_product -->
<g id="node2" class="node">
<title>add_product</title>
<polygon fill="none" stroke="#000000" points="377,-952.5 377,-989.5 1134,-989.5 1134,-952.5 377,-952.5"/>
<text text-anchor="start" x="739.5" y="-967.3" font-family="Times,serif" font-size="14.00" fill="#000000">Order</text>
<g id="a_node2_1"><a xlink:href="https://github.com/odoo/odoo/blob/70fc0ff01386a04a33883293fa35d2233701a761/addons/point_of_sale/static/src/js/models.js#L2353" xlink:title="&lt;TABLE&gt;">
<polygon fill="none" stroke="#0000ff" points="377,-790.5 377,-952.5 1134,-952.5 1134,-790.5 377,-790.5"/>
<text text-anchor="start" x="388" y="-931.3" font-family="monospace" font-size="14.00" fill="#000000">add_product: function(product, options){</text>
<text text-anchor="start" x="388" y="-917.3" font-family="monospace" font-size="14.00" fill="#000000"> &#160;&#160;&#160;// ...</text>
<text text-anchor="start" x="388" y="-903.3" font-family="monospace" font-size="14.00" fill="#000000"> &#160;&#160;&#160;var line = new exports.Orderline({}, {pos: this.pos, order: this, product: product});</text>
<text text-anchor="start" x="388" y="-889.3" font-family="monospace" font-size="14.00" fill="#000000"> &#160;&#160;&#160;// ...</text>
<text text-anchor="start" x="388" y="-875.3" font-family="monospace" font-size="14.00" fill="#000000"> &#160;&#160;&#160;line.set_quantity(options.quantity);</text>
<text text-anchor="start" x="388" y="-861.3" font-family="monospace" font-size="14.00" fill="#000000"> &#160;&#160;&#160;// ...</text>
<text text-anchor="start" x="388" y="-847.3" font-family="monospace" font-size="14.00" fill="#000000"> &#160;&#160;&#160;else {</text>
<text text-anchor="start" x="388" y="-833.3" font-family="monospace" font-size="14.00" fill="#000000"> &#160;&#160;&#160;&#160;&#160;&#160;</text>
<text text-anchor="start" x="446" y="-833.3" font-family="monospace" font-size="14.00" fill="#ff0000">this.orderlines.add(line);</text>
<text text-anchor="start" x="388" y="-819.3" font-family="monospace" font-size="14.00" fill="#000000"> &#160;&#160;&#160;}</text>
<text text-anchor="start" x="388" y="-805.3" font-family="monospace" font-size="14.00" fill="#000000">}</text>
</a>
</g>
</g>
<!-- click_product&#45;&gt;add_product -->
<g id="edge1" class="edge">
<title>click_product&#45;&gt;add_product</title>
<path fill="none" stroke="#000000" d="M822.6229,-1259.9517C809.6727,-1189.1996 790.4794,-1084.3388 775.8457,-1004.3889"/>
<polygon fill="#000000" stroke="#000000" points="779.2373,-1003.4783 773.994,-994.2719 772.3517,-1004.7387 779.2373,-1003.4783"/>
<text text-anchor="middle" x="819.5" y="-1105.8" font-family="Times,serif" font-size="14.00" fill="#000000">2.</text>
</g>
<!-- render_orderwidget_bind -->
<g id="node6" class="node">
<title>render_orderwidget_bind</title>
<polygon fill="none" stroke="#000000" points="1618,-1146.5 1618,-1183.5 2037,-1183.5 2037,-1146.5 1618,-1146.5"/>
<text text-anchor="start" x="1784" y="-1161.3" font-family="Times,serif" font-size="14.00" fill="#000000">1. OrderWidget</text>
<g id="a_node6_2"><a xlink:href="https://github.com/odoo/odoo/blob/70fc0ff01386a04a33883293fa35d2233701a761/addons/point_of_sale/static/src/js/screens.js#L594" xlink:title="&lt;TABLE&gt;">
<polygon fill="none" stroke="#0000ff" points="1618,-1034.5 1618,-1146.5 2037,-1146.5 2037,-1034.5 1618,-1034.5"/>
<text text-anchor="start" x="1629" y="-1124.3" font-family="monospace" font-size="14.00" fill="#000000">bind_order_events: function() {</text>
<text text-anchor="start" x="1629" y="-1109.3" font-family="monospace" font-size="14.00" fill="#000000"> &#160;&#160;&#160;// ...</text>
<text text-anchor="start" x="1629" y="-1094.3" font-family="monospace" font-size="14.00" fill="#000000"> &#160;&#160;&#160;var lines = order.orderlines;</text>
<text text-anchor="start" x="1629" y="-1079.3" font-family="monospace" font-size="14.00" fill="#000000"> &#160;&#160;&#160;// ...</text>
<text text-anchor="start" x="1629" y="-1064.3" font-family="monospace" font-size="14.00" fill="#000000"> &#160;&#160;&#160;lines.bind(&#39;add&#39;, this.orderline_add, this);</text>
<text text-anchor="start" x="1629" y="-1049.3" font-family="monospace" font-size="14.00" fill="#000000">}</text>
</a>
</g>
</g>
<!-- click_product&#45;&gt;render_orderwidget_bind -->
<g id="edge8" class="edge">
<title>click_product&#45;&gt;render_orderwidget_bind</title>
<path fill="none" stroke="#000000" stroke-dasharray="1,5" d="M1149.9984,-1310.7305C1287.0345,-1293.319 1448.7552,-1265.5881 1591.3252,-1221.9922"/>
<polygon fill="#000000" stroke="#000000" points="1592.4806,-1225.2985 1601,-1219 1590.4123,-1218.611 1592.4806,-1225.2985"/>
<text text-anchor="middle" x="1566.5" y="-1230.8" font-family="Times,serif" font-size="14.00" fill="#000000">7.</text>
</g>
<!-- orderline_initialize -->
<g id="node3" class="node">
<title>orderline_initialize</title>
<polygon fill="none" stroke="#000000" points="121,-469.5 121,-506.5 894,-506.5 894,-469.5 121,-469.5"/>
<text text-anchor="start" x="481.5" y="-484.3" font-family="Times,serif" font-size="14.00" fill="#000000">Orderline</text>
<g id="a_node3_3"><a xlink:href="https://github.com/odoo/odoo/blob/70fc0ff01386a04a33883293fa35d2233701a761/addons/point_of_sale/static/src/js/models.js#L1342" xlink:title="&lt;TABLE&gt;">
<polygon fill="none" stroke="#0000ff" points="121,-357.5 121,-469.5 894,-469.5 894,-357.5 121,-357.5"/>
<text text-anchor="start" x="132" y="-447.3" font-family="monospace" font-size="14.00" fill="#000000">initialize: function(attr,options){</text>
<text text-anchor="start" x="132" y="-432.3" font-family="monospace" font-size="14.00" fill="#000000"> &#160;&#160;&#160;// ...</text>
<text text-anchor="start" x="132" y="-417.3" font-family="monospace" font-size="14.00" fill="#000000"> &#160;&#160;&#160;this.set_quantity(1);</text>
<text text-anchor="start" x="132" y="-402.3" font-family="monospace" font-size="14.00" fill="#000000"> &#160;&#160;&#160;// ...</text>
<text text-anchor="start" x="132" y="-387.3" font-family="monospace" font-size="14.00" fill="#000000"> &#160;&#160;&#160;this.set_unit_price(this.product.get_price(this.order.pricelist, this.get_quantity()));</text>
<text text-anchor="start" x="132" y="-372.3" font-family="monospace" font-size="14.00" fill="#000000">}</text>
</a>
</g>
</g>
<!-- add_product&#45;&gt;orderline_initialize -->
<g id="edge2" class="edge">
<title>add_product&#45;&gt;orderline_initialize</title>
<path fill="none" stroke="#000000" d="M698.8799,-786.8589C655.3543,-706.4768 595.7001,-596.3091 554.5159,-520.2511"/>
<polygon fill="#000000" stroke="#000000" points="557.4267,-518.2761 549.5873,-511.1491 551.2712,-521.6092 557.4267,-518.2761"/>
<text text-anchor="middle" x="683.5" y="-645.3" font-family="Times,serif" font-size="14.00" fill="#000000">3.</text>
</g>
<!-- orderline_set_quantity -->
<g id="node5" class="node">
<title>orderline_set_quantity</title>
<polygon fill="none" stroke="#000000" points="740,-104.5 740,-141.5 1134,-141.5 1134,-104.5 740,-104.5"/>
<text text-anchor="start" x="911" y="-119.3" font-family="Times,serif" font-size="14.00" fill="#000000">Orderline</text>
<g id="a_node5_4"><a xlink:href="https://github.com/odoo/odoo/blob/70fc0ff01386a04a33883293fa35d2233701a761/addons/point_of_sale/static/src/js/models.js#L1425" xlink:title="&lt;TABLE&gt;">
<polygon fill="none" stroke="#0000ff" points="740,-26.5 740,-104.5 1134,-104.5 1134,-26.5 740,-26.5"/>
<text text-anchor="start" x="751" y="-83.3" font-family="monospace" font-size="14.00" fill="#000000">set_quantity: function(quantity, keep_price){</text>
<text text-anchor="start" x="751" y="-69.3" font-family="monospace" font-size="14.00" fill="#000000"> &#160;&#160;&#160;// ...</text>
<text text-anchor="start" x="751" y="-55.3" font-family="monospace" font-size="14.00" fill="#000000"> &#160;&#160;</text>
<text text-anchor="start" x="776" y="-55.3" font-family="monospace" font-size="14.00" fill="#ff0000">this.trigger(&#39;change&#39;, this);</text>
<text text-anchor="start" x="751" y="-41.3" font-family="monospace" font-size="14.00" fill="#000000">}</text>
</a>
</g>
</g>
<!-- add_product&#45;&gt;orderline_set_quantity -->
<g id="edge5" class="edge">
<title>add_product&#45;&gt;orderline_set_quantity</title>
<path fill="none" stroke="#000000" d="M877.4064,-786.8714C910.3287,-747.8995 937,-700.4501 937,-649 937,-649 937,-649 937,-253.5 937,-221.7426 937,-186.6284 937,-156.673"/>
<polygon fill="#000000" stroke="#000000" points="940.5001,-156.3065 937,-146.3065 933.5001,-156.3066 940.5001,-156.3065"/>
<text text-anchor="middle" x="942.5" y="-428.8" font-family="Times,serif" font-size="14.00" fill="#000000">6.</text>
</g>
<!-- orderline_set_unit_price -->
<g id="node4" class="node">
<title>orderline_set_unit_price</title>
<polygon fill="none" stroke="#000000" points="24,-111.5 24,-148.5 707,-148.5 707,-111.5 24,-111.5"/>
<text text-anchor="start" x="339.5" y="-126.3" font-family="Times,serif" font-size="14.00" fill="#000000">Orderline</text>
<g id="a_node4_5"><a xlink:href="https://github.com/odoo/odoo/blob/70fc0ff01386a04a33883293fa35d2233701a761/addons/point_of_sale/static/src/js/models.js#L1645" xlink:title="&lt;TABLE&gt;">
<polygon fill="none" stroke="#0000ff" points="24,-19.5 24,-111.5 707,-111.5 707,-19.5 24,-19.5"/>
<text text-anchor="start" x="35" y="-90.3" font-family="monospace" font-size="14.00" fill="#000000">set_unit_price: function(price){</text>
<text text-anchor="start" x="35" y="-76.3" font-family="monospace" font-size="14.00" fill="#000000"> &#160;&#160;&#160;this.order.assert_editable();</text>
<text text-anchor="start" x="35" y="-62.3" font-family="monospace" font-size="14.00" fill="#000000"> &#160;&#160;&#160;this.price = round_di(parseFloat(price) || 0, this.pos.dp[&#39;Product Price&#39;]);</text>
<text text-anchor="start" x="35" y="-48.3" font-family="monospace" font-size="14.00" fill="#000000"> &#160;&#160;</text>
<text text-anchor="start" x="60" y="-48.3" font-family="monospace" font-size="14.00" fill="#ff0000">this.trigger(&#39;change&#39;,this);</text>
<text text-anchor="start" x="35" y="-34.3" font-family="monospace" font-size="14.00" fill="#000000">}</text>
</a>
</g>
</g>
<!-- orderline_initialize&#45;&gt;orderline_set_unit_price -->
<g id="edge4" class="edge">
<title>orderline_initialize&#45;&gt;orderline_set_unit_price</title>
<path fill="none" stroke="#000000" d="M474.9554,-353.9681C451.5933,-296.7147 420.0813,-219.4881 396.781,-162.3857"/>
<polygon fill="#000000" stroke="#000000" points="399.9874,-160.9796 392.9687,-153.043 393.5062,-163.6242 399.9874,-160.9796"/>
<text text-anchor="middle" x="464.5" y="-249.8" font-family="Times,serif" font-size="14.00" fill="#000000">5.</text>
</g>
<!-- orderline_initialize&#45;&gt;orderline_set_quantity -->
<g id="edge3" class="edge">
<title>orderline_initialize&#45;&gt;orderline_set_quantity</title>
<path fill="none" stroke="#000000" d="M604.0366,-353.9681C678.8098,-293.4539 781.1536,-210.6268 852.566,-152.8326"/>
<polygon fill="#000000" stroke="#000000" points="855.11,-155.2764 860.6815,-146.2648 850.7063,-149.8351 855.11,-155.2764"/>
<text text-anchor="middle" x="820.5" y="-249.8" font-family="Times,serif" font-size="14.00" fill="#000000">4.</text>
</g>
<!-- render_orderline_add -->
<g id="node7" class="node">
<title>render_orderline_add</title>
<polygon fill="none" stroke="#000000" points="1174,-1131.5 1174,-1168.5 1584,-1168.5 1584,-1131.5 1174,-1131.5"/>
<text text-anchor="start" x="1342.5" y="-1146.3" font-family="Times,serif" font-size="14.00" fill="#000000">OrderWidget</text>
<g id="a_node7_6"><a xlink:href="https://github.com/odoo/odoo/blob/70fc0ff01386a04a33883293fa35d2233701a761/addons/point_of_sale/static/src/js/screens.js#L581" xlink:title="&lt;TABLE&gt;">
<polygon fill="none" stroke="#0000ff" points="1174,-1049.5 1174,-1131.5 1584,-1131.5 1584,-1049.5 1174,-1049.5"/>
<text text-anchor="start" x="1185" y="-1109.3" font-family="monospace" font-size="14.00" fill="#000000">orderline_add: function(){</text>
<text text-anchor="start" x="1185" y="-1094.3" font-family="monospace" font-size="14.00" fill="#000000"> &#160;&#160;&#160;// ...</text>
<text text-anchor="start" x="1185" y="-1079.3" font-family="monospace" font-size="14.00" fill="#000000"> &#160;&#160;&#160;this.renderElement(&#39;and_scroll_to_bottom&#39;);</text>
<text text-anchor="start" x="1185" y="-1064.3" font-family="monospace" font-size="14.00" fill="#000000">}</text>
</a>
</g>
</g>
<!-- render_element -->
<g id="node8" class="node">
<title>render_element</title>
<polygon fill="none" stroke="#000000" points="1174,-709 1174,-746 1980,-746 1980,-709 1174,-709"/>
<text text-anchor="start" x="1540.5" y="-723.8" font-family="Times,serif" font-size="14.00" fill="#000000">OrderWidget</text>
<g id="a_node8_7"><a xlink:href="https://github.com/odoo/odoo/blob/70fc0ff01386a04a33883293fa35d2233701a761/addons/point_of_sale/static/src/js/screens.js#L645" xlink:title="&lt;TABLE&gt;">
<polygon fill="none" stroke="#0000ff" points="1174,-552 1174,-709 1980,-709 1980,-552 1174,-552"/>
<text text-anchor="start" x="1185" y="-686.8" font-family="monospace" font-size="14.00" fill="#000000">renderElement: function(scrollbottom){</text>
<text text-anchor="start" x="1185" y="-671.8" font-family="monospace" font-size="14.00" fill="#000000"> &#160;&#160;&#160;var el_str &#160;= QWeb.render(&#39;OrderWidget&#39;,{widget:this, order:order, orderlines:orderlines});</text>
<text text-anchor="start" x="1185" y="-656.8" font-family="monospace" font-size="14.00" fill="#000000"> &#160;&#160;&#160;// ...</text>
<text text-anchor="start" x="1185" y="-641.8" font-family="monospace" font-size="14.00" fill="#000000"> &#160;&#160;&#160;for(var i = 0, len = orderlines.length; i &lt; len; i++){</text>
<text text-anchor="start" x="1185" y="-626.8" font-family="monospace" font-size="14.00" fill="#000000"> &#160;&#160;&#160;&#160;&#160;&#160;&#160;var orderline = this.render_orderline(orderlines[i]);</text>
<text text-anchor="start" x="1185" y="-611.8" font-family="monospace" font-size="14.00" fill="#000000"> &#160;&#160;&#160;&#160;&#160;&#160;&#160;list_container.appendChild(orderline);</text>
<text text-anchor="start" x="1185" y="-596.8" font-family="monospace" font-size="14.00" fill="#000000"> &#160;&#160;&#160;}</text>
<text text-anchor="start" x="1185" y="-581.8" font-family="monospace" font-size="14.00" fill="#000000"> &#160;&#160;&#160;// ...</text>
<text text-anchor="start" x="1185" y="-566.8" font-family="monospace" font-size="14.00" fill="#000000">},</text>
</a>
</g>
</g>
<!-- render_orderline_add&#45;&gt;render_element -->
<g id="edge6" class="edge">
<title>render_orderline_add&#45;&gt;render_element</title>
<path fill="none" stroke="#000000" d="M1406.3232,-1045.9529C1438.0349,-972.1992 1490.8947,-849.2601 1529.3995,-759.7071"/>
<polygon fill="#000000" stroke="#000000" points="1532.6973,-760.8979 1533.432,-750.3286 1526.2666,-758.1328 1532.6973,-760.8979"/>
<text text-anchor="middle" x="1522.5" y="-886.8" font-family="Times,serif" font-size="14.00" fill="#000000">8.</text>
</g>
<!-- render_orderline -->
<g id="node9" class="node">
<title>render_orderline</title>
<polygon fill="none" stroke="#000000" points="1265,-275.5 1265,-312.5 1890,-312.5 1890,-275.5 1265,-275.5"/>
<text text-anchor="start" x="1541" y="-290.3" font-family="Times,serif" font-size="14.00" fill="#000000">OrderWidget</text>
<g id="a_node9_8"><a xlink:href="https://github.com/odoo/odoo/blob/70fc0ff01386a04a33883293fa35d2233701a761/addons/point_of_sale/static/src/js/screens.js#L610" xlink:title="&lt;TABLE&gt;">
<polygon fill="none" stroke="#0000ff" points="1265,-193.5 1265,-275.5 1890,-275.5 1890,-193.5 1265,-193.5"/>
<text text-anchor="start" x="1276" y="-253.3" font-family="monospace" font-size="14.00" fill="#000000">render_orderline: function(orderline){</text>
<text text-anchor="start" x="1276" y="-238.3" font-family="monospace" font-size="14.00" fill="#000000"> &#160;&#160;&#160;var el_str &#160;= QWeb.render(&#39;Orderline&#39;,{widget:this, line:orderline});</text>
<text text-anchor="start" x="1276" y="-223.3" font-family="monospace" font-size="14.00" fill="#000000"> &#160;&#160;&#160;// ...</text>
<text text-anchor="start" x="1276" y="-208.3" font-family="monospace" font-size="14.00" fill="#000000">}</text>
</a>
</g>
</g>
<!-- render_element&#45;&gt;render_orderline -->
<g id="edge7" class="edge">
<title>render_element&#45;&gt;render_orderline</title>
<path fill="none" stroke="#000000" d="M1577,-547.919C1577,-479.0862 1577,-389.5289 1577,-327.3462"/>
<polygon fill="#000000" stroke="#000000" points="1580.5001,-327.2238 1577,-317.2239 1573.5001,-327.2239 1580.5001,-327.2238"/>
<text text-anchor="middle" x="1582.5" y="-428.8" font-family="Times,serif" font-size="14.00" fill="#000000">9.</text>
</g>
</g>
</svg>
